<?xml version="1.0" encoding="utf-8"?>
<!-- Generator: Adobe Illustrator 30.5.1, SVG Export Plug-In . SVG Version: 9.03 Build 0)  -->
<svg version="1.0" id="Layer_1" xmlns="http://www.w3.org/2000/svg" xmlns:xlink="http://www.w3.org/1999/xlink" x="0px" y="0px"
	 viewBox="0 0 512 512" style="enable-background:new 0 0 512 512;" xml:space="preserve">
<style type="text/css">
	
		.st0{clip-path:url(#SVGID_00000134939814928522707670000001863473667622938786_);fill:url(#SVGID_00000054966486822467233680000008493606454975026841_);}
	
		.st1{clip-path:url(#SVGID_00000003106565805946916980000005106104680683942540_);fill:url(#SVGID_00000037693809618535822510000005413809896538438578_);}
	
		.st2{clip-path:url(#SVGID_00000048470848429290714580000007461494589712124803_);fill:url(#SVGID_00000144310008862944153660000009938924272578674328_);}
	
		.st3{clip-path:url(#SVGID_00000083807639577171981520000005527234008831031945_);fill:url(#SVGID_00000182514971744900791160000004547767087194733482_);}
	
		.st4{clip-path:url(#SVGID_00000158750430304635433330000003352491522177935751_);fill:url(#SVGID_00000168818959583129628140000006669306961256504500_);}
	
		.st5{clip-path:url(#SVGID_00000029726187254108082440000014153996954524968626_);fill:url(#SVGID_00000040545062601101363680000018046048375569854106_);}
	
		.st6{clip-path:url(#SVGID_00000008139660625983857010000009192835765805163413_);fill:url(#SVGID_00000078009124082965406100000007838253659220733359_);}
</style>
<g>
	<g>
		<defs>
			<path id="SVGID_1_" d="M69.03,154.44c-10.83,22.57,12.6,48.37,12.6,48.37c10.18-8.85,29.28-4.76,29.28-4.76
				c118.49,27.2,204.51-46.74,204.51-46.74c-52.82,36.12-123.35,3.13-123.35,3.13c-51.61-22.88-84.77-28.81-84.77-28.81
				c-1.44-0.1-2.81-0.19-4.2-0.19C67.91,125.53,69.03,154.44,69.03,154.44"/>
		</defs>
		<clipPath id="SVGID_00000105410265947876332000000012018897156542439309_">
			<use xlink:href="#SVGID_1_"  style="overflow:visible;"/>
		</clipPath>
		
			<linearGradient id="SVGID_00000054965666406540164540000016528132831580656059_" gradientUnits="userSpaceOnUse" x1="-90.539" y1="675.2485" x2="-67.893" y2="675.2485" gradientTransform="matrix(-3.3066 -5.3318 5.2501 -3.2561 -3632.7737 1931.4979)">
			<stop  offset="0.0859" style="stop-color:#B5D334"/>
			<stop  offset="0.1538" style="stop-color:#ADCE36"/>
			<stop  offset="0.2501" style="stop-color:#99C23A"/>
			<stop  offset="0.3635" style="stop-color:#79B33F"/>
			<stop  offset="0.4889" style="stop-color:#48A243"/>
			<stop  offset="0.6022" style="stop-color:#009246"/>
			<stop  offset="0.6812" style="stop-color:#008F44"/>
			<stop  offset="0.7926" style="stop-color:#008640"/>
			<stop  offset="0.9229" style="stop-color:#007738"/>
			<stop  offset="1" style="stop-color:#006C32"/>
		</linearGradient>
		
			<polygon style="clip-path:url(#SVGID_00000105410265947876332000000012018897156542439309_);fill:url(#SVGID_00000054965666406540164540000016528132831580656059_);" points="
			360.09,197.56 243.99,10.29 13.49,153.2 129.65,340.5 		"/>
	</g>
	<g>
		<defs>
			<path id="SVGID_00000011014214738212814370000018083621765179566781_" d="M435.33,87.88c2.07,13.19-11.1,27.08-11.1,27.08
				c-83.22,85.22-61.05,193.32-61.05,193.32c-2.28-53.74,48.61-97.87,55.54-102.53c45.35-22.72,67.22-56.13,67.22-56.13
				c22.17-31.9-4.18-47.14-4.18-47.14c-8.22-12.99-24.32-15.41-35.19-15.41C440.02,87.07,435.33,87.88,435.33,87.88"/>
		</defs>
		<clipPath id="SVGID_00000044874964451501531700000011447245352729244309_">
			<use xlink:href="#SVGID_00000011014214738212814370000018083621765179566781_"  style="overflow:visible;"/>
		</clipPath>
		
			<linearGradient id="SVGID_00000008862805093315774220000002380320314503102386_" gradientUnits="userSpaceOnUse" x1="341.0107" y1="197.671" x2="508.0992" y2="197.671">
			<stop  offset="0.0859" style="stop-color:#B5D334"/>
			<stop  offset="0.1538" style="stop-color:#ADCE36"/>
			<stop  offset="0.2501" style="stop-color:#99C23A"/>
			<stop  offset="0.3635" style="stop-color:#79B33F"/>
			<stop  offset="0.4889" style="stop-color:#48A243"/>
			<stop  offset="0.6022" style="stop-color:#009246"/>
			<stop  offset="0.6812" style="stop-color:#008F44"/>
			<stop  offset="0.7926" style="stop-color:#008640"/>
			<stop  offset="0.9229" style="stop-color:#007738"/>
			<stop  offset="1" style="stop-color:#006C32"/>
		</linearGradient>
		
			<rect x="341.01" y="87.07" style="clip-path:url(#SVGID_00000044874964451501531700000011447245352729244309_);fill:url(#SVGID_00000008862805093315774220000002380320314503102386_);" width="167.09" height="221.21"/>
	</g>
	<g>
		<defs>
			<path id="SVGID_00000020358459042648045490000009003021089397396105_" d="M261.36,98.99c-33.25,41.56-58.22,54.39-58.22,54.39
				c74.83,27.38,112.28-13.51,112.28-13.51c17.1-16.6,42.63-31.13,42.63-31.13c148.61-77.95,141.41,29.08,141.41,29.08
				C508.75,33.88,430.43,4.08,430.43,4.08C421.95,1.2,413.46,0,404.97,0C330.2,0,261.36,98.99,261.36,98.99"/>
		</defs>
		<clipPath id="SVGID_00000147935429370283742820000017894448466497881238_">
			<use xlink:href="#SVGID_00000020358459042648045490000009003021089397396105_"  style="overflow:visible;"/>
		</clipPath>
		
			<linearGradient id="SVGID_00000142869346212557471150000016665623092579764111_" gradientUnits="userSpaceOnUse" x1="-21.3565" y1="691.6042" x2="1.2899" y2="691.6042" gradientTransform="matrix(10.6708 0 0 10.6708 482.5949 -7289.5928)">
			<stop  offset="0" style="stop-color:#63605F"/>
			<stop  offset="5.996700e-03" style="stop-color:#63605F"/>
			<stop  offset="0.506" style="stop-color:#BFBCBC"/>
			<stop  offset="1" style="stop-color:#63605F"/>
		</linearGradient>
		
			<rect x="203.14" y="0" style="clip-path:url(#SVGID_00000147935429370283742820000017894448466497881238_);fill:url(#SVGID_00000142869346212557471150000016665623092579764111_);" width="305.61" height="180.76"/>
	</g>
	<g>
		<defs>
			<path id="SVGID_00000026847966485170495900000004644380005554416268_" d="M279.64,482.18 M372.02,323.08
				c2.09,24.69,5.02,52.57,5.02,52.57c-9.04,166.36-96.09,107.44-97.4,106.54c84.57,61.2,150.2,9.24,150.2,9.24
				c66.75-57.89,5-193.85,5-193.85c-18.75-49.87-16.99-77.81-16.99-77.81C351.79,272.46,372.02,323.08,372.02,323.08"/>
		</defs>
		<clipPath id="SVGID_00000067218706595640824770000003958044446477939117_">
			<use xlink:href="#SVGID_00000026847966485170495900000004644380005554416268_"  style="overflow:visible;"/>
		</clipPath>
		
			<linearGradient id="SVGID_00000037676262944700287230000005319760106772654526_" gradientUnits="userSpaceOnUse" x1="-87.0125" y1="702.315" x2="-64.3726" y2="702.315" gradientTransform="matrix(0 -12.8737 12.8737 0 -8653.2764 -559.7157)">
			<stop  offset="0" style="stop-color:#63605F"/>
			<stop  offset="5.996700e-03" style="stop-color:#63605F"/>
			<stop  offset="0.506" style="stop-color:#BFBCBC"/>
			<stop  offset="1" style="stop-color:#63605F"/>
		</linearGradient>
		
			<rect x="279.64" y="219.76" style="clip-path:url(#SVGID_00000067218706595640824770000003958044446477939117_);fill:url(#SVGID_00000037676262944700287230000005319760106772654526_);" width="216.95" height="323.62"/>
	</g>
	<g>
		<defs>
			<path id="SVGID_00000011731497278222739940000007483148094705270445_" d="M198.71,280.3c56.99,27.98,62.99,99.65,62.99,99.65
				c1.32,51.13,16.23,87.74,16.23,87.74c17.12,35.41,43.49,19.03,43.49,19.03c24.89-1.83,35.86-34.85,35.86-34.85
				c-12.6-4.52-18.34-23.08-18.34-23.08C305.17,313.09,199.7,280.63,198.71,280.3z"/>
		</defs>
		<clipPath id="SVGID_00000067232111006769225860000003936165880241986480_">
			<use xlink:href="#SVGID_00000011731497278222739940000007483148094705270445_"  style="overflow:visible;"/>
		</clipPath>
		
			<linearGradient id="SVGID_00000119094775664269159410000000466066572147429012_" gradientUnits="userSpaceOnUse" x1="-3.0231" y1="608.7484" x2="19.6141" y2="608.7484" gradientTransform="matrix(-2.9358 5.3525 -5.2279 -2.8676 3480.5015 2100.9121)">
			<stop  offset="0.0859" style="stop-color:#B5D334"/>
			<stop  offset="0.1538" style="stop-color:#ADCE36"/>
			<stop  offset="0.2501" style="stop-color:#99C23A"/>
			<stop  offset="0.3635" style="stop-color:#79B33F"/>
			<stop  offset="0.4889" style="stop-color:#48A243"/>
			<stop  offset="0.6022" style="stop-color:#009246"/>
			<stop  offset="0.6812" style="stop-color:#008F44"/>
			<stop  offset="0.7926" style="stop-color:#008640"/>
			<stop  offset="0.9229" style="stop-color:#007738"/>
			<stop  offset="1" style="stop-color:#006C32"/>
		</linearGradient>
		
			<polygon style="clip-path:url(#SVGID_00000067232111006769225860000003936165880241986480_);fill:url(#SVGID_00000119094775664269159410000000466066572147429012_);" points="
			235.42,213.47 104.81,451.56 320.64,569.97 451.27,331.84 		"/>
	</g>
	<g>
		<defs>
			<path id="SVGID_00000042010547289157333510000007810008907962238396_" d="M11.99,241.53c13.4,87.27,161.34,107.54,161.34,107.54
				c52.16,10.73,79.69,24.35,79.69,24.35c-11.48-77.51-65.82-93.55-65.82-93.55c-22.61-7.74-49.1-21.35-49.1-21.35
				C1.23,161.47,99.87,119.37,99.87,119.37C3.02,158.24,11.99,241.53,11.99,241.53"/>
		</defs>
		<clipPath id="SVGID_00000170245565160328672070000012834564018168616070_">
			<use xlink:href="#SVGID_00000042010547289157333510000007810008907962238396_"  style="overflow:visible;"/>
		</clipPath>
		
			<linearGradient id="SVGID_00000002376369650908719080000004516214058399954877_" gradientUnits="userSpaceOnUse" x1="-32.3571" y1="689.2623" x2="-9.7173" y2="689.2623" gradientTransform="matrix(9.3023 9.3023 -9.3023 9.3023 6714.5986 -5989.5771)">
			<stop  offset="0" style="stop-color:#63605F"/>
			<stop  offset="5.996700e-03" style="stop-color:#63605F"/>
			<stop  offset="0.506" style="stop-color:#BFBCBC"/>
			<stop  offset="1" style="stop-color:#63605F"/>
		</linearGradient>
		
			<polygon style="clip-path:url(#SVGID_00000170245565160328672070000012834564018168616070_);fill:url(#SVGID_00000002376369650908719080000004516214058399954877_);" points="
			-125.84,246.4 127.15,499.35 380.05,246.4 127.15,-6.55 		"/>
	</g>
	<g>
		<defs>
			<path id="SVGID_00000136403482022581335050000012470588617167024024_" d="M326.55,140.55c126.77-93.53,159.38-33.94,159.38-33.94
				c32.57,37.47-42.24,80.39-42.24,80.39c-84.63,56.82-81.82,112.28-81.82,112.28c16.65,97.69,0.76,133.74,0.76,133.74
				c-16.72,69.97-63.84,49.88-63.84,49.88c-30.52-3.47-30.52-66.49-30.52-66.49c-13.13-130.98-70.64-140.02-70.64-140.02
				C126.98,254.25,89.36,210,89.36,210c-55.63-63.41,12.45-83.62,12.45-83.62c11.42-0.52,100.63,33.59,100.63,33.59
				c20.06,7.77,37.53,10.71,52.65,10.71C303.21,170.64,326.55,140.55,326.55,140.55 M418.84,83.23
				c-70.15,18.18-104.94,58.75-104.94,58.75c-44.16,36.86-110.76,11.39-110.76,11.39l-99.78-34.97
				c-76.17,23.59-29.57,87.5-29.57,87.5c38.39,54.55,114.81,76.04,114.81,76.04c52.65,18.07,63.8,85.92,63.8,85.92
				c6.19,53.36,17.96,104.61,17.96,104.61c30.54,34.69,66.58,15.3,66.58,15.3c57.49-36.05,36.01-161.49,36.01-161.49
				c-22.18-66.51,75-132.88,75-132.88c60.79-32.72,51-69.1,51-69.1c-5.15-37.33-31.19-45.2-52.25-45.2
				C431.47,79.11,418.84,83.23,418.84,83.23"/>
		</defs>
		<clipPath id="SVGID_00000182515122505848986370000016263233157339255197_">
			<use xlink:href="#SVGID_00000136403482022581335050000012470588617167024024_"  style="overflow:visible;"/>
		</clipPath>
		
			<radialGradient id="SVGID_00000155138617185703026470000009360883523463712428_" cx="-16.5313" cy="713.4451" r="22.6447" gradientTransform="matrix(9.4334 0 0 9.4334 434.2165 -6443.104)" gradientUnits="userSpaceOnUse">
			<stop  offset="0" style="stop-color:#20592D"/>
			<stop  offset="5.996700e-03" style="stop-color:#20592D"/>
			<stop  offset="0.315" style="stop-color:#ADC855"/>
			<stop  offset="0.556" style="stop-color:#2C6331"/>
			<stop  offset="0.787" style="stop-color:#CDE07E"/>
			<stop  offset="1" style="stop-color:#025029"/>
		</radialGradient>
		
			<rect x="27.19" y="47.02" style="clip-path:url(#SVGID_00000182515122505848986370000016263233157339255197_);fill:url(#SVGID_00000155138617185703026470000009360883523463712428_);" width="491.32" height="460.15"/>
	</g>
</g>
</svg>
